# xmcd CD database file
#
# Track frame offsets:
#	150
#	16201
#	46275
#	74279
#	91844
#	111121
#	126667
#	145325
#	164289
#	187824
#	212120
#	231902
#	261212
#
# Disc length: 3828 seconds
#
# Revision: 0
# Processed by: cddbd v1.5.2PL0 Copyright (c) Steve Scherf et al.
# Submitted via: CDex 1.51
#
DISCID=b70ef20d
DTITLE=Ken Wood - Just swing, just friends
DYEAR=2002
DGENRE=Jazz
TTITLE0=Bernie´s tune
TTITLE1=Rifftide
TTITLE2=Chords on the block
TTITLE3=There´ll be some changes made
TTITLE4=Benny´s bugle
TTITLE5=Once in a while
TTITLE6=Moten swing
TTITLE7=Sweet Georgia brown
TTITLE8=Fried buzzard
TTITLE9=Eighty candles swing
TTITLE10=Lover man
TTITLE11=Perdido
TTITLE12=Blues in the closet
EXTD=YEAR: 2002
EXTT0=
EXTT1=
EXTT2=
EXTT3=
EXTT4=
EXTT5=
EXTT6=
EXTT7=
EXTT8=
EXTT9=
EXTT10=
EXTT11=
EXTT12=
PLAYORDER=
